<svg id="visual" viewBox="0 0 900 600" width="900" height="600" xmlns="http://www.w3.org/2000/svg" xmlns:xlink="http://www.w3.org/1999/xlink" version="1.1"><rect x="0" y="0" width="900" height="600" fill="#ffffff"></rect><path d="M0 248L11.5 253.7C23 259.3 46 270.7 69 279.3C92 288 115 294 138.2 295.2C161.3 296.3 184.7 292.7 207.8 293.7C231 294.7 254 300.3 277 304C300 307.7 323 309.3 346 305C369 300.7 392 290.3 415.2 292.5C438.3 294.7 461.7 309.3 484.8 318C508 326.7 531 329.3 554 322.2C577 315 600 298 623 298.7C646 299.3 669 317.7 692.2 323C715.3 328.3 738.7 320.7 761.8 306.2C785 291.7 808 270.3 831 263.7C854 257 877 265 888.5 269L900 273L900 0L888.5 0C877 0 854 0 831 0C808 0 785 0 761.8 0C738.7 0 715.3 0 692.2 0C669 0 646 0 623 0C600 0 577 0 554 0C531 0 508 0 484.8 0C461.7 0 438.3 0 415.2 0C392 0 369 0 346 0C323 0 300 0 277 0C254 0 231 0 207.8 0C184.7 0 161.3 0 138.2 0C115 0 92 0 69 0C46 0 23 0 11.5 0L0 0Z" fill="#3e8f28"></path><path d="M0 200L11.5 208.7C23 217.3 46 234.7 69 247.7C92 260.7 115 269.3 138.2 261.2C161.3 253 184.7 228 207.8 224.3C231 220.7 254 238.3 277 242.2C300 246 323 236 346 235C369 234 392 242 415.2 239.8C438.3 237.7 461.7 225.3 484.8 222C508 218.7 531 224.3 554 231.2C577 238 600 246 623 252.5C646 259 669 264 692.2 255.7C715.3 247.3 738.7 225.7 761.8 217.7C785 209.7 808 215.3 831 218.3C854 221.3 877 221.7 888.5 221.8L900 222L900 0L888.5 0C877 0 854 0 831 0C808 0 785 0 761.8 0C738.7 0 715.3 0 692.2 0C669 0 646 0 623 0C600 0 577 0 554 0C531 0 508 0 484.8 0C461.7 0 438.3 0 415.2 0C392 0 369 0 346 0C323 0 300 0 277 0C254 0 231 0 207.8 0C184.7 0 161.3 0 138.2 0C115 0 92 0 69 0C46 0 23 0 11.5 0L0 0Z" fill="#3d9c32"></path><path d="M0 181L11.5 186C23 191 46 201 69 206.2C92 211.3 115 211.7 138.2 209.7C161.3 207.7 184.7 203.3 207.8 199.8C231 196.3 254 193.7 277 187.5C300 181.3 323 171.7 346 164.5C369 157.3 392 152.7 415.2 157.3C438.3 162 461.7 176 484.8 179.8C508 183.7 531 177.3 554 175C577 172.7 600 174.3 623 171.7C646 169 669 162 692.2 169C715.3 176 738.7 197 761.8 198.5C785 200 808 182 831 178.7C854 175.3 877 186.7 888.5 192.3L900 198L900 0L888.5 0C877 0 854 0 831 0C808 0 785 0 761.8 0C738.7 0 715.3 0 692.2 0C669 0 646 0 623 0C600 0 577 0 554 0C531 0 508 0 484.8 0C461.7 0 438.3 0 415.2 0C392 0 369 0 346 0C323 0 300 0 277 0C254 0 231 0 207.8 0C184.7 0 161.3 0 138.2 0C115 0 92 0 69 0C46 0 23 0 11.5 0L0 0Z" fill="#39aa3d"></path><path d="M0 154L11.5 149C23 144 46 134 69 132C92 130 115 136 138.2 139C161.3 142 184.7 142 207.8 140.5C231 139 254 136 277 129.2C300 122.3 323 111.7 346 106C369 100.3 392 99.7 415.2 105.3C438.3 111 461.7 123 484.8 125.3C508 127.7 531 120.3 554 122.5C577 124.7 600 136.3 623 136C646 135.7 669 123.3 692.2 118.7C715.3 114 738.7 117 761.8 116.8C785 116.7 808 113.3 831 111C854 108.7 877 107.3 888.5 106.7L900 106L900 0L888.5 0C877 0 854 0 831 0C808 0 785 0 761.8 0C738.7 0 715.3 0 692.2 0C669 0 646 0 623 0C600 0 577 0 554 0C531 0 508 0 484.8 0C461.7 0 438.3 0 415.2 0C392 0 369 0 346 0C323 0 300 0 277 0C254 0 231 0 207.8 0C184.7 0 161.3 0 138.2 0C115 0 92 0 69 0C46 0 23 0 11.5 0L0 0Z" fill="#32b849"></path><path d="M0 59L11.5 57.5C23 56 46 53 69 53C92 53 115 56 138.2 56.2C161.3 56.3 184.7 53.7 207.8 54.5C231 55.3 254 59.7 277 61C300 62.3 323 60.7 346 63.7C369 66.7 392 74.3 415.2 73.7C438.3 73 461.7 64 484.8 62.8C508 61.7 531 68.3 554 66.5C577 64.7 600 54.3 623 56.2C646 58 669 72 692.2 77C715.3 82 738.7 78 761.8 78C785 78 808 82 831 82.7C854 83.3 877 80.7 888.5 79.3L900 78L900 0L888.5 0C877 0 854 0 831 0C808 0 785 0 761.8 0C738.7 0 715.3 0 692.2 0C669 0 646 0 623 0C600 0 577 0 554 0C531 0 508 0 484.8 0C461.7 0 438.3 0 415.2 0C392 0 369 0 346 0C323 0 300 0 277 0C254 0 231 0 207.8 0C184.7 0 161.3 0 138.2 0C115 0 92 0 69 0C46 0 23 0 11.5 0L0 0Z" fill="#24c755"></path></svg>